# xmcd CD database file
#
# Track frame offsets:
#	150
#	19132
#	32687
#	44037
#	62377
#	77312
#	94104
#	112060
#	128079
#	146550
#	161970
#	178292
#	197102
#	212942
#	225750
#	248580
#	265555
#	279547
#
# Disc length: 3960 seconds
#
# Revision: 2
# Processed by: cddbd v1.5.2PL0 Copyright (c) Steve Scherf et al.
# Submitted via: CDex 1.70beta2
#
DISCID=f80f7612
DTITLE=Natural Blues - Gearin' It Up
DYEAR=2010
DGENRE=Blues
TTITLE0=Wagon Wheel (Bob Dylan - Ketch Secor, 1973 - 2001)
TTITLE1=She Just Wants To Dance (Georgina Graper, Kevin Moore, 1994)
TTITLE2=I Will Turn Your Money Green (Walter E. 'Furry' Lewis, 1928)
TTITLE3=My My, Hey Hey (Out Of The Blue) (Neil Young, 1978)
TTITLE4=Natural Blues (Doc Pomus, Mort Shuman, 1960)
TTITLE5=Last Letter Home (David McDade, J.H. Brown Jr., 1977)
TTITLE6=Mama Talk To Your Daughter (J.B. Lenoir, 1954)
TTITLE7=Hand It Over (Kevin Moore, 1996)
TTITLE8=Copperhead Road (Steve Earle, 1988)
TTITLE9=Hey Good Lookin' (Hank Williams Sr., 1951)
TTITLE10=In A Town This Size (Kieran Kane, 1998)
TTITLE11=Key To The Highway ('Big Bill' Broonzy, 1940)
TTITLE12=Dancing In The Dark (Bruce Springsteen, 1985)
TTITLE13=Sugar Bee (Eddie Shuler, 1960)
TTITLE14=Change My Way Of Living (Dickey Betts, 1994)
TTITLE15=Let The Mermaids Flirt With Me ('Mississippi' John Hurt, 1963)
TTITLE16=Long Gone Lonesome Blues (Hank Williams Sr., 1949)
TTITLE17=Killiing The Blues (Rowland Salley, 1977)
EXTD=YEAR: 2010
EXTT0=
EXTT1=
EXTT2=
EXTT3=
EXTT4=
EXTT5=
EXTT6=
EXTT7=
EXTT8=
EXTT9=
EXTT10=
EXTT11=
EXTT12=
EXTT13=
EXTT14=
EXTT15=
EXTT16=
EXTT17=
PLAYORDER=
